<?xml version="1.0" encoding="utf-8"?>
<!-- Generator: Adobe Illustrator 25.3.0, SVG Export Plug-In . SVG Version: 6.00 Build 0)  -->
<svg version="1.1" id="Layer_1" xmlns="http://www.w3.org/2000/svg" xmlns:xlink="http://www.w3.org/1999/xlink" x="0px" y="0px"
	 viewBox="0 0 1920 1080" style="enable-background:new 0 0 1920 1080;" xml:space="preserve">
<style type="text/css">
	.st0{fill:#10121A;}
	.st1{fill:#FFFFFF;}
	.st2{font-family:'Montserrat-Bold';}
	.st3{font-size:140.7754px;}
	.st4{fill:#10121A;stroke:#000000;stroke-miterlimit:10;}
</style>
<g>
	<rect x="343.5" y="321.5" class="st0" width="1248" height="728"/>
	<path d="M1591,322v727H344V322H1591 M1592,321H343v729h1249V321L1592,321z"/>
</g>
<text transform="matrix(1 0 0 1 713.625 796.1172)" class="st1 st2 st3">DEJARE</text>
<rect x="631.5" y="683.5" transform="matrix(0.8629 -0.5054 0.5054 0.8629 -295.4242 458.0624)" class="st0" width="130" height="180"/>
<path class="st4" d="M634.5,620.5"/>
<path class="st1" d="M643,732c21.44-31.15,58.2-31.06,61-31c22.39,31.14,44.78,62.28,67.17,93.41c-11.33,0.24-22.72,0.44-34.17,0.59
	c-34.87,0.45-69.21,0.44-103,0C632.83,791.38,623.43,760.44,643,732z"/>
<path class="st1" d="M207,685"/>
</svg>
