<?xml version="1.0" encoding="utf-8"?>
<!-- Generator: Adobe Illustrator 25.3.0, SVG Export Plug-In . SVG Version: 6.00 Build 0)  -->
<svg version="1.1" id="Layer_1" xmlns="http://www.w3.org/2000/svg" xmlns:xlink="http://www.w3.org/1999/xlink" x="0px" y="0px"
	 viewBox="0 0 1366 768" style="enable-background:new 0 0 1366 768;" xml:space="preserve">
<style type="text/css">
	.st0{fill:#10121A;}
	.st1{fill:#569AAB;}
</style>
<rect y="0" class="st0" width="1366" height="768"/>
<g>
	<circle class="st1" cx="1098.02" cy="66.02" r="6.02"/>
</g>
<g>
	<circle class="st1" cx="1098.02" cy="299.98" r="6.02"/>
</g>
<g>
	<circle class="st1" cx="1098.02" cy="266.56" r="6.02"/>
</g>
<g>
	<circle class="st1" cx="1098.02" cy="233.14" r="6.02"/>
</g>
<g>
	<circle class="st1" cx="1098.02" cy="199.71" r="6.02"/>
</g>
<g>
	<circle class="st1" cx="1098.02" cy="166.29" r="6.02"/>
</g>
<g>
	<circle class="st1" cx="1098.02" cy="132.86" r="6.02"/>
</g>
<g>
	<circle class="st1" cx="1098.02" cy="99.44" r="6.02"/>
</g>
<g>
	<circle class="st1" cx="1132.11" cy="66.02" r="6.02"/>
</g>
<g>
	<circle class="st1" cx="1132.11" cy="299.98" r="6.02"/>
</g>
<g>
	<circle class="st1" cx="1132.11" cy="266.56" r="6.02"/>
</g>
<g>
	<circle class="st1" cx="1132.11" cy="233.14" r="6.02"/>
</g>
<g>
	<circle class="st1" cx="1132.11" cy="199.71" r="6.02"/>
</g>
<g>
	<circle class="st1" cx="1132.11" cy="166.29" r="6.02"/>
</g>
<g>
	<circle class="st1" cx="1132.11" cy="132.86" r="6.02"/>
</g>
<g>
	<circle class="st1" cx="1132.11" cy="99.44" r="6.02"/>
</g>
<g>
	<circle class="st1" cx="1166.2" cy="66.02" r="6.02"/>
</g>
<g>
	<circle class="st1" cx="1166.2" cy="299.98" r="6.02"/>
</g>
<g>
	<circle class="st1" cx="1166.2" cy="266.56" r="6.02"/>
</g>
<g>
	<circle class="st1" cx="1166.2" cy="233.14" r="6.02"/>
</g>
<g>
	<circle class="st1" cx="1166.2" cy="199.71" r="6.02"/>
</g>
<g>
	<circle class="st1" cx="1166.2" cy="166.29" r="6.02"/>
</g>
<g>
	<circle class="st1" cx="1166.2" cy="132.86" r="6.02"/>
</g>
<g>
	<circle class="st1" cx="1166.2" cy="99.44" r="6.02"/>
</g>
<g>
	<circle class="st1" cx="1200.29" cy="66.02" r="6.02"/>
</g>
<g>
	<circle class="st1" cx="1200.29" cy="299.98" r="6.02"/>
</g>
<g>
	<circle class="st1" cx="1200.29" cy="266.56" r="6.02"/>
</g>
<g>
	<circle class="st1" cx="1200.29" cy="233.14" r="6.02"/>
</g>
<g>
	<circle class="st1" cx="1200.29" cy="199.71" r="6.02"/>
</g>
<g>
	<circle class="st1" cx="1200.29" cy="166.29" r="6.02"/>
</g>
<g>
	<circle class="st1" cx="1200.29" cy="132.86" r="6.02"/>
</g>
<g>
	<circle class="st1" cx="1200.29" cy="99.44" r="6.02"/>
</g>
<g>
	<circle class="st1" cx="1234.39" cy="66.02" r="6.02"/>
</g>
<g>
	<circle class="st1" cx="1267.81" cy="66.02" r="6.02"/>
</g>
<g>
	<circle class="st1" cx="1232.38" cy="98.1" r="6.02"/>
</g>
<g>
	<circle class="st1" cx="1232.38" cy="298.65" r="6.02"/>
</g>
<g>
	<circle class="st1" cx="1232.38" cy="265.22" r="6.02"/>
</g>
<g>
	<circle class="st1" cx="1232.38" cy="231.8" r="6.02"/>
</g>
<g>
	<circle class="st1" cx="1232.38" cy="198.38" r="6.02"/>
</g>
<g>
	<circle class="st1" cx="1232.38" cy="164.95" r="6.02"/>
</g>
<g>
	<circle class="st1" cx="1232.38" cy="131.53" r="6.02"/>
</g>
<g>
	<circle class="st1" cx="1266.47" cy="98.1" r="6.02"/>
</g>
<g>
	<circle class="st1" cx="1266.47" cy="298.65" r="6.02"/>
</g>
<g>
	<circle class="st1" cx="1266.47" cy="265.22" r="6.02"/>
</g>
<g>
	<circle class="st1" cx="1266.47" cy="231.8" r="6.02"/>
</g>
<g>
	<circle class="st1" cx="1266.47" cy="198.38" r="6.02"/>
</g>
<g>
	<circle class="st1" cx="1266.47" cy="164.95" r="6.02"/>
</g>
<g>
	<circle class="st1" cx="1266.47" cy="131.53" r="6.02"/>
</g>
<g>
	<circle class="st1" cx="33.65" cy="688.96" r="6.65"/>
</g>
<g>
	<circle class="st1" cx="33.65" cy="652" r="6.65"/>
</g>
<g>
	<circle class="st1" cx="33.65" cy="615.04" r="6.65"/>
</g>
<g>
	<circle class="st1" cx="71.35" cy="688.96" r="6.65"/>
</g>
<g>
	<circle class="st1" cx="71.35" cy="659" r="6.65"/>
</g>
<g>
	<circle class="st1" cx="71.35" cy="615.04" r="6.65"/>
</g>
</svg>
