<?xml version="1.0" encoding="utf-8"?>
<!-- Generator: Adobe Illustrator 25.3.0, SVG Export Plug-In . SVG Version: 6.00 Build 0)  -->
<svg version="1.1" id="Layer_1" xmlns="http://www.w3.org/2000/svg" xmlns:xlink="http://www.w3.org/1999/xlink" x="0px" y="0px"
	 viewBox="0 0 1125 2436" style="enable-background:new 0 0 1125 2436;" xml:space="preserve">
<style type="text/css">
	.st0{fill:#10121A;stroke:#000000;stroke-miterlimit:10;}
	.st1{fill:#569AAB;}
</style>
<rect x="-0.5" y="-0.5" class="st0" width="1125" height="2436"/>
<g>
	<circle class="st1" cx="774.82" cy="347.09" r="7.45"/>
</g>
<g>
	<circle class="st1" cx="774.82" cy="636.55" r="7.45"/>
</g>
<g>
	<circle class="st1" cx="774.82" cy="595.2" r="7.45"/>
</g>
<g>
	<circle class="st1" cx="774.82" cy="553.86" r="7.45"/>
</g>
<g>
	<circle class="st1" cx="774.82" cy="512.5" r="7.45"/>
</g>
<g>
	<circle class="st1" cx="774.82" cy="471.15" r="7.45"/>
</g>
<g>
	<circle class="st1" cx="774.82" cy="429.79" r="7.45"/>
</g>
<g>
	<circle class="st1" cx="774.82" cy="388.44" r="7.45"/>
</g>
<g>
	<circle class="st1" cx="817" cy="347.09" r="7.45"/>
</g>
<g>
	<circle class="st1" cx="817" cy="636.55" r="7.45"/>
</g>
<g>
	<circle class="st1" cx="817" cy="595.2" r="7.45"/>
</g>
<g>
	<circle class="st1" cx="817" cy="553.86" r="7.45"/>
</g>
<g>
	<circle class="st1" cx="817" cy="512.5" r="7.45"/>
</g>
<g>
	<circle class="st1" cx="817" cy="471.15" r="7.45"/>
</g>
<g>
	<circle class="st1" cx="817" cy="429.79" r="7.45"/>
</g>
<g>
	<circle class="st1" cx="817" cy="388.44" r="7.45"/>
</g>
<g>
	<circle class="st1" cx="859.17" cy="347.09" r="7.45"/>
</g>
<g>
	<circle class="st1" cx="859.17" cy="636.55" r="7.45"/>
</g>
<g>
	<circle class="st1" cx="859.17" cy="595.2" r="7.45"/>
</g>
<g>
	<circle class="st1" cx="859.17" cy="553.86" r="7.45"/>
</g>
<g>
	<circle class="st1" cx="859.17" cy="512.5" r="7.45"/>
</g>
<g>
	<circle class="st1" cx="859.17" cy="471.15" r="7.45"/>
</g>
<g>
	<circle class="st1" cx="859.17" cy="429.79" r="7.45"/>
</g>
<g>
	<circle class="st1" cx="859.17" cy="388.44" r="7.45"/>
</g>
<g>
	<circle class="st1" cx="901.35" cy="347.09" r="7.45"/>
</g>
<g>
	<circle class="st1" cx="901.35" cy="636.55" r="7.45"/>
</g>
<g>
	<circle class="st1" cx="901.35" cy="595.2" r="7.45"/>
</g>
<g>
	<circle class="st1" cx="901.35" cy="553.86" r="7.45"/>
</g>
<g>
	<circle class="st1" cx="901.35" cy="512.5" r="7.45"/>
</g>
<g>
	<circle class="st1" cx="901.35" cy="471.15" r="7.45"/>
</g>
<g>
	<circle class="st1" cx="901.35" cy="429.79" r="7.45"/>
</g>
<g>
	<circle class="st1" cx="901.35" cy="388.44" r="7.45"/>
</g>
<g>
	<circle class="st1" cx="943.54" cy="347.09" r="7.45"/>
</g>
<g>
	<circle class="st1" cx="984.89" cy="347.09" r="7.45"/>
</g>
<g>
	<circle class="st1" cx="941.05" cy="386.78" r="7.45"/>
</g>
<g>
	<circle class="st1" cx="941.05" cy="634.91" r="7.45"/>
</g>
<g>
	<circle class="st1" cx="941.05" cy="593.55" r="7.45"/>
</g>
<g>
	<circle class="st1" cx="941.05" cy="552.2" r="7.45"/>
</g>
<g>
	<circle class="st1" cx="941.05" cy="510.85" r="7.45"/>
</g>
<g>
	<circle class="st1" cx="941.05" cy="469.49" r="7.45"/>
</g>
<g>
	<circle class="st1" cx="941.05" cy="428.14" r="7.45"/>
</g>
<g>
	<circle class="st1" cx="983.23" cy="386.78" r="7.45"/>
</g>
<g>
	<circle class="st1" cx="983.23" cy="634.91" r="7.45"/>
</g>
<g>
	<circle class="st1" cx="983.23" cy="593.55" r="7.45"/>
</g>
<g>
	<circle class="st1" cx="983.23" cy="552.2" r="7.45"/>
</g>
<g>
	<circle class="st1" cx="983.23" cy="510.85" r="7.45"/>
</g>
<g>
	<circle class="st1" cx="983.23" cy="469.49" r="7.45"/>
</g>
<g>
	<circle class="st1" cx="983.23" cy="428.14" r="7.45"/>
</g>
<g>
	
		<ellipse transform="matrix(0.9999 -0.0102 0.0102 0.9999 -21.9206 1.6876)" class="st1" cx="154.45" cy="2149.34" rx="11.66" ry="11.66"/>
</g>
<g>
	
		<ellipse transform="matrix(0.9999 -0.0102 0.0102 0.9999 -21.2593 1.6843)" class="st1" cx="154.45" cy="2084.52" rx="11.66" ry="11.66"/>
</g>
<g>
	
		<ellipse transform="matrix(0.9999 -0.0102 0.0102 0.9999 -20.5979 1.6809)" class="st1" cx="154.45" cy="2019.7" rx="11.66" ry="11.66"/>
</g>
<g>
	<circle class="st1" cx="220.57" cy="2149.34" r="11.66"/>
</g>
<g>
	<circle class="st1" cx="220.57" cy="2096.79" r="11.66"/>
</g>
<g>
	<circle class="st1" cx="220.57" cy="2019.7" r="11.66"/>
</g>
</svg>
