<svg id="Layer_1" data-name="Layer 1" xmlns="http://www.w3.org/2000/svg" viewBox="0 0 381.23 424.26"><defs><style>.cls-1{fill:#00516a;}.cls-1,.cls-12{stroke:#231f20;stroke-miterlimit:10;}.cls-2{font-size:58.03px;font-family:Montserrat-Bold, Montserrat;font-weight:700;}.cls-2,.cls-4{fill:#fff;}.cls-3{letter-spacing:-0.03em;}.cls-4{font-size:12px;font-family:Montserrat-Regular, Montserrat;}.cls-5{letter-spacing:-0.01em;}.cls-6{letter-spacing:-0.06em;}.cls-7{letter-spacing:0em;}.cls-8{letter-spacing:-0.01em;}.cls-9{letter-spacing:0em;}.cls-10{letter-spacing:-0.01em;}.cls-11{letter-spacing:-0.02em;}.cls-12{fill:#fbb040;}</style></defs><rect class="cls-1" x="0.5" y="0.5" width="380.23" height="423.26"/><text class="cls-2" transform="translate(32.49 224.27)">JIGG<tspan class="cls-3" x="139.92" y="0">Y</tspan><tspan x="177.24" y="0">-LIFE</tspan></text><text class="cls-4" transform="translate(178.14 240.68)">That Li<tspan class="cls-5" x="40.4" y="0">f</tspan><tspan x="44.36" y="0">e </tspan><tspan class="cls-6" x="54.75" y="0">Y</tspan><tspan class="cls-7" x="61.66" y="0">ou </tspan><tspan class="cls-8" x="80.4" y="0">C</tspan><tspan x="88.93" y="0">a</tspan><tspan class="cls-8" x="96.01" y="0">n</tspan><tspan class="cls-9" x="104.04" y="0">’</tspan><tspan x="106.61" y="0">t S</tspan><tspan class="cls-10" x="122" y="0">a</tspan><tspan x="128.96" y="0">y NO </tspan><tspan class="cls-11" x="161.58" y="0">t</tspan><tspan x="166.22" y="0">o</tspan></text><path class="cls-12" d="M103,315.53c-5.56-30.72,72.91-62.22,68.61-72.09-3.34-7.66-57.92-5.64-81.4,29.07-27.48,40.63-.5,108.55,24.42,112.79,13.57,2.31,31.68-13.38,31.4-26.74C145.56,339.18,106.71,336.27,103,315.53Z" transform="translate(-73.38 -113.87)"/></svg>